<?xml version="1.0" encoding="UTF-8" standalone="no"?>
<!DOCTYPE svg PUBLIC "-//W3C//DTD SVG 1.1//EN"
 "http://www.w3.org/Graphics/SVG/1.1/DTD/svg11.dtd">
<!-- Generated by graphviz version 2.43.0 (0)
 -->
<!-- Title: %3 Pages: 1 -->
<svg width="1605pt" height="116pt"
 viewBox="0.00 0.00 1605.33 116.00" xmlns="http://www.w3.org/2000/svg" xmlns:xlink="http://www.w3.org/1999/xlink">
<g id="graph0" class="graph" transform="scale(1 1) rotate(0) translate(4 112)">
<title>%3</title>
<polygon fill="white" stroke="transparent" points="-4,4 -4,-112 1601.33,-112 1601.33,4 -4,4"/>
<!-- f049130fb5191b1ee8eb438c7ccce767c8ffdbcb -->
<g id="node1" class="node">
<title>f049130fb5191b1ee8eb438c7ccce767c8ffdbcb</title>
<ellipse fill="none" stroke="black" cx="241.39" cy="-90" rx="92.88" ry="18"/>
<text text-anchor="middle" x="241.39" y="-86.3" font-family="Times,serif" font-size="14.00">debian:bookworm</text>
</g>
<!-- 9e3c83da62a4abcdef172ac91dc156e2ab0e378b -->
<g id="node3" class="node">
<title>9e3c83da62a4abcdef172ac91dc156e2ab0e378b</title>
<ellipse fill="none" stroke="black" cx="114.39" cy="-18" rx="114.28" ry="18"/>
<text text-anchor="middle" x="114.39" y="-14.3" font-family="Times,serif" font-size="14.00">debian&#45;bookworm&#45;edit</text>
</g>
<!-- f049130fb5191b1ee8eb438c7ccce767c8ffdbcb&#45;&gt;9e3c83da62a4abcdef172ac91dc156e2ab0e378b -->
<g id="edge1" class="edge">
<title>f049130fb5191b1ee8eb438c7ccce767c8ffdbcb&#45;&gt;9e3c83da62a4abcdef172ac91dc156e2ab0e378b</title>
<path fill="none" stroke="black" d="M211.93,-72.76C194.43,-63.12 172.02,-50.77 153.1,-40.34"/>
<polygon fill="black" stroke="black" points="154.57,-37.15 144.13,-35.39 151.19,-43.28 154.57,-37.15"/>
</g>
<!-- 07c4d74aef54e516708516a8591aacc4b7fb0d41 -->
<g id="node5" class="node">
<title>07c4d74aef54e516708516a8591aacc4b7fb0d41</title>
<ellipse fill="none" stroke="black" cx="367.39" cy="-18" rx="120.78" ry="18"/>
<text text-anchor="middle" x="367.39" y="-14.3" font-family="Times,serif" font-size="14.00">debian:bookworm&#45;devel</text>
</g>
<!-- f049130fb5191b1ee8eb438c7ccce767c8ffdbcb&#45;&gt;07c4d74aef54e516708516a8591aacc4b7fb0d41 -->
<g id="edge2" class="edge">
<title>f049130fb5191b1ee8eb438c7ccce767c8ffdbcb&#45;&gt;07c4d74aef54e516708516a8591aacc4b7fb0d41</title>
<path fill="none" stroke="black" d="M270.61,-72.76C287.86,-63.19 309.89,-50.94 328.58,-40.56"/>
<polygon fill="black" stroke="black" points="330.41,-43.55 337.45,-35.63 327.01,-37.43 330.41,-43.55"/>
</g>
<!-- f5f2530898b047a2d8085fd0678037e7addbbf77 -->
<g id="node2" class="node">
<title>f5f2530898b047a2d8085fd0678037e7addbbf77</title>
<ellipse fill="none" stroke="black" cx="700.39" cy="-90" rx="69.59" ry="18"/>
<text text-anchor="middle" x="700.39" y="-86.3" font-family="Times,serif" font-size="14.00">debian:trixie</text>
</g>
<!-- 4f586a4924a262caf53ad944309982e58444b1fe -->
<g id="node4" class="node">
<title>4f586a4924a262caf53ad944309982e58444b1fe</title>
<ellipse fill="none" stroke="black" cx="597.39" cy="-18" rx="90.98" ry="18"/>
<text text-anchor="middle" x="597.39" y="-14.3" font-family="Times,serif" font-size="14.00">debian&#45;trixie&#45;edit</text>
</g>
<!-- f5f2530898b047a2d8085fd0678037e7addbbf77&#45;&gt;4f586a4924a262caf53ad944309982e58444b1fe -->
<g id="edge3" class="edge">
<title>f5f2530898b047a2d8085fd0678037e7addbbf77&#45;&gt;4f586a4924a262caf53ad944309982e58444b1fe</title>
<path fill="none" stroke="black" d="M676.76,-72.94C662.96,-63.56 645.33,-51.58 630.2,-41.3"/>
<polygon fill="black" stroke="black" points="631.86,-38.2 621.63,-35.47 627.93,-43.99 631.86,-38.2"/>
</g>
<!-- b8af4938adb6b9d602831dad7cf700e2a42ff42d -->
<g id="node6" class="node">
<title>b8af4938adb6b9d602831dad7cf700e2a42ff42d</title>
<ellipse fill="none" stroke="black" cx="803.39" cy="-18" rx="97.48" ry="18"/>
<text text-anchor="middle" x="803.39" y="-14.3" font-family="Times,serif" font-size="14.00">debian:trixie&#45;devel</text>
</g>
<!-- f5f2530898b047a2d8085fd0678037e7addbbf77&#45;&gt;b8af4938adb6b9d602831dad7cf700e2a42ff42d -->
<g id="edge4" class="edge">
<title>f5f2530898b047a2d8085fd0678037e7addbbf77&#45;&gt;b8af4938adb6b9d602831dad7cf700e2a42ff42d</title>
<path fill="none" stroke="black" d="M724.02,-72.94C737.82,-63.56 755.45,-51.58 770.58,-41.3"/>
<polygon fill="black" stroke="black" points="772.85,-43.99 779.15,-35.47 768.92,-38.2 772.85,-43.99"/>
</g>
<!-- 8047456e50255be118a082460ca60b887a19a2e7 -->
<g id="node7" class="node">
<title>8047456e50255be118a082460ca60b887a19a2e7</title>
<ellipse fill="none" stroke="black" cx="1069.39" cy="-90" rx="64.99" ry="18"/>
<text text-anchor="middle" x="1069.39" y="-86.3" font-family="Times,serif" font-size="14.00">almalinux:8</text>
</g>
<!-- da97e8676d4cce33c21cfaabd5455395747ab29f -->
<g id="node9" class="node">
<title>da97e8676d4cce33c21cfaabd5455395747ab29f</title>
<ellipse fill="none" stroke="black" cx="982.39" cy="-18" rx="63.09" ry="18"/>
<text text-anchor="middle" x="982.39" y="-14.3" font-family="Times,serif" font-size="14.00">alma&#45;8&#45;edit</text>
</g>
<!-- 8047456e50255be118a082460ca60b887a19a2e7&#45;&gt;da97e8676d4cce33c21cfaabd5455395747ab29f -->
<g id="edge5" class="edge">
<title>8047456e50255be118a082460ca60b887a19a2e7&#45;&gt;da97e8676d4cce33c21cfaabd5455395747ab29f</title>
<path fill="none" stroke="black" d="M1049.21,-72.76C1037.68,-63.49 1023.05,-51.71 1010.42,-41.55"/>
<polygon fill="black" stroke="black" points="1012.44,-38.69 1002.46,-35.15 1008.06,-44.14 1012.44,-38.69"/>
</g>
<!-- 02836444ab741767124542db699109ecd12fa193 -->
<g id="node11" class="node">
<title>02836444ab741767124542db699109ecd12fa193</title>
<ellipse fill="none" stroke="black" cx="1156.39" cy="-18" rx="92.88" ry="18"/>
<text text-anchor="middle" x="1156.39" y="-14.3" font-family="Times,serif" font-size="14.00">almalinux:8&#45;devel</text>
</g>
<!-- 8047456e50255be118a082460ca60b887a19a2e7&#45;&gt;02836444ab741767124542db699109ecd12fa193 -->
<g id="edge6" class="edge">
<title>8047456e50255be118a082460ca60b887a19a2e7&#45;&gt;02836444ab741767124542db699109ecd12fa193</title>
<path fill="none" stroke="black" d="M1089.57,-72.76C1100.93,-63.62 1115.31,-52.05 1127.82,-41.99"/>
<polygon fill="black" stroke="black" points="1130.12,-44.63 1135.72,-35.63 1125.73,-39.18 1130.12,-44.63"/>
</g>
<!-- 521a5a67e9b4229f2cf30c0c3fd89bfab2667791 -->
<g id="node8" class="node">
<title>521a5a67e9b4229f2cf30c0c3fd89bfab2667791</title>
<ellipse fill="none" stroke="black" cx="1417.39" cy="-90" rx="64.99" ry="18"/>
<text text-anchor="middle" x="1417.39" y="-86.3" font-family="Times,serif" font-size="14.00">almalinux:9</text>
</g>
<!-- 885710b497b973a32be355dcbbefd5b7f8b6dfd7 -->
<g id="node10" class="node">
<title>885710b497b973a32be355dcbbefd5b7f8b6dfd7</title>
<ellipse fill="none" stroke="black" cx="1330.39" cy="-18" rx="63.09" ry="18"/>
<text text-anchor="middle" x="1330.39" y="-14.3" font-family="Times,serif" font-size="14.00">alma&#45;9&#45;edit</text>
</g>
<!-- 521a5a67e9b4229f2cf30c0c3fd89bfab2667791&#45;&gt;885710b497b973a32be355dcbbefd5b7f8b6dfd7 -->
<g id="edge7" class="edge">
<title>521a5a67e9b4229f2cf30c0c3fd89bfab2667791&#45;&gt;885710b497b973a32be355dcbbefd5b7f8b6dfd7</title>
<path fill="none" stroke="black" d="M1397.21,-72.76C1385.68,-63.49 1371.05,-51.71 1358.42,-41.55"/>
<polygon fill="black" stroke="black" points="1360.44,-38.69 1350.46,-35.15 1356.06,-44.14 1360.44,-38.69"/>
</g>
<!-- 966893f3bef1a7e1c322358c9bab69f769587d94 -->
<g id="node12" class="node">
<title>966893f3bef1a7e1c322358c9bab69f769587d94</title>
<ellipse fill="none" stroke="black" cx="1504.39" cy="-18" rx="92.88" ry="18"/>
<text text-anchor="middle" x="1504.39" y="-14.3" font-family="Times,serif" font-size="14.00">almalinux:9&#45;devel</text>
</g>
<!-- 521a5a67e9b4229f2cf30c0c3fd89bfab2667791&#45;&gt;966893f3bef1a7e1c322358c9bab69f769587d94 -->
<g id="edge8" class="edge">
<title>521a5a67e9b4229f2cf30c0c3fd89bfab2667791&#45;&gt;966893f3bef1a7e1c322358c9bab69f769587d94</title>
<path fill="none" stroke="black" d="M1437.57,-72.76C1448.93,-63.62 1463.31,-52.05 1475.82,-41.99"/>
<polygon fill="black" stroke="black" points="1478.12,-44.63 1483.72,-35.63 1473.73,-39.18 1478.12,-44.63"/>
</g>
</g>
</svg>
